# xmcd
#
# Track frame offsets:
#	150
#	15902
#	32372
#	50020
#	63965
#	81792
#	101422
#	116142
#	130202
#	145200
#	162630
#	180535
#	200142
#	227547
#
# Disc length: 3132 seconds
#
# Revision: 0
# Processed by: cddbd v1.5.2PL0 Copyright (c) Steve Scherf et al.
# Submitted via: EasyCDDAExtractor 15.3.0.1
#
DISCID=b80c3a0e
DTITLE=Jennifer Lopez - Brave (Deluxe Edition)
DYEAR=2007
DGENRE=Pop
TTITLE0=Stay Together
TTITLE1=Forever
TTITLE2=Hold It Don't Drop It
TTITLE3=Do It Well
TTITLE4=Gotta Be There
TTITLE5=Never Gonna Give Up
TTITLE6=Mile In These Shoes
TTITLE7=The Way It Is
TTITLE8=Be Mine
TTITLE9=I Need Love
TTITLE10=Wrong When You're Gone
TTITLE11=Brave
TTITLE12=Do It Well (Featuring Ludacris) (Bonus Track)
TTITLE13=Data
EXTD=
EXTT0=
EXTT1=
EXTT2=
EXTT3=
EXTT4=
EXTT5=
EXTT6=
EXTT7=
EXTT8=
EXTT9=
EXTT10=
EXTT11=
EXTT12=
EXTT13=
PLAYORDER=
